<svg width="79" height="50" viewBox="0 0 79 50" fill="none" xmlns="http://www.w3.org/2000/svg" class="w-8 sm:w-12 lg:w-full"><path d="M24.9595 49.3855C24.7158 49.3855 24.4722 49.2914 24.2867 49.1059L0 24.6945L24.2867 0.286099C24.6521 -0.0820442 25.253 -0.0849979 25.6238 0.27766L33.738 8.23948C33.9207 8.41669 34.0203 8.65762 34.023 8.90952C34.023 9.16416 33.9262 9.40509 33.7462 9.58504L18.7141 24.6945L33.7462 39.8042C33.9262 39.9842 34.023 40.2249 34.023 40.4798C34.023 40.7344 33.9207 40.9724 33.738 41.1496L25.6238 49.1142C25.4411 49.2941 25.2002 49.3855 24.9595 49.3855Z" fill="black"/><path d="M53.4151 0C53.6587 0 53.9024 0.0940922 54.0878 0.279535L78.3746 24.6909L54.0878 49.0994C53.7224 49.4675 53.1216 49.4703 52.7507 49.1076L44.6366 41.146C44.4539 40.9688 44.3543 40.7278 44.3516 40.4759C44.3516 40.2213 44.4484 39.9804 44.6284 39.8004L59.6604 24.6909L44.6284 9.58122C44.4484 9.40127 44.3516 9.16034 44.3516 8.9057C44.3516 8.65106 44.4539 8.41287 44.6366 8.23587L52.7507 0.271309C52.9334 0.0913509 53.1743 0 53.4151 0Z" fill="black"/></svg>