<svg width="58" height="59" viewBox="0 0 58 59" fill="none" xmlns="http://www.w3.org/2000/svg" class="w-6 sm:w-9 lg:w-full"><path d="M39.3462 58.9858L34.3078 58.9924C33.7427 58.9931 33.2864 58.5346 33.2857 57.9729L33.2719 47.4499C33.2712 46.885 33.7297 46.4285 34.2914 46.4278L38.2857 46.4225C39.1051 46.4215 39.7918 46.1332 40.3825 45.5442C40.9698 44.9553 41.2563 44.1655 41.255 43.1312L41.2443 34.9609C41.2424 33.4807 41.548 32.2446 42.1546 31.2889C42.6855 30.449 43.4942 29.8534 44.5641 29.5183C43.4933 29.1828 42.6797 28.5924 42.1499 27.7539C41.5442 26.7964 41.232 25.5645 41.2301 24.0844L41.2194 15.914C41.2181 14.8799 40.9294 14.0906 40.3406 13.5C39.7518 12.9127 39.0641 12.6262 38.2449 12.6273L34.2504 12.6325C33.6855 12.6332 33.229 12.1745 33.2282 11.6128L33.2145 1.08331C33.2137 0.51844 33.6724 0.0618955 34.2339 0.0611615L39.2725 0.0545751C43.2074 0.0494313 46.2616 1.12905 48.3589 3.26065C50.4531 5.39226 51.5143 8.42383 51.5193 12.2694L51.5274 18.4346C51.5295 20.0601 51.9507 21.2226 52.7742 21.8922C53.6208 22.5781 54.6952 22.9271 55.9638 22.9254L56.8063 22.9243C57.3712 22.9236 57.8278 23.3821 57.8285 23.9438L57.843 35.0481C57.8437 35.6132 57.385 36.0697 56.8235 36.0704L55.981 36.0715C54.709 36.0732 53.6389 36.4248 52.7941 37.113C51.969 37.7849 51.5542 38.9483 51.5563 40.5738L51.5644 46.7389C51.5694 50.5449 50.5129 53.566 48.4275 55.7229C46.339 57.8831 43.2845 58.9806 39.3495 58.9858L39.3462 58.9858Z" fill="black"/><path d="M18.5663 0.0773425L23.6046 0.0707564C24.1697 0.0700178 24.626 0.528653 24.6268 1.09022L24.6405 11.6132C24.6413 12.178 24.1828 12.6346 23.621 12.6353L19.6267 12.6405C18.8073 12.6416 18.1206 12.9301 17.5299 13.5189C16.9427 14.1078 16.6561 14.8978 16.6574 15.9319L16.6681 24.1022C16.6701 25.5824 16.3645 26.8185 15.7579 27.7742C15.227 28.6141 14.4183 29.2097 13.3482 29.5448C14.4191 29.8805 15.2328 30.4707 15.7625 31.3092C16.3682 32.2667 16.6804 33.4986 16.6823 34.9787L16.693 43.1493C16.6944 44.1834 16.983 44.9725 17.5718 45.5631C18.1607 46.1504 18.8481 46.4371 19.6675 46.436L23.6619 46.4308C24.2269 46.4301 24.6835 46.8886 24.6842 47.4503L24.698 57.9798C24.6987 58.5447 24.24 59.0012 23.6783 59.0019L18.6399 59.0085C14.705 59.0137 11.6508 57.934 9.55351 55.8024C7.45936 53.6708 6.39812 50.6393 6.3931 46.7937L6.38504 40.6285C6.38291 39.003 5.96169 37.8407 5.13826 37.1709C4.29142 36.485 3.21726 36.1362 1.94867 36.1379L1.1061 36.139C0.541224 36.1397 0.0845952 35.681 0.0838609 35.1193L0.0693455 24.015C0.0686071 23.4501 0.527199 22.9936 1.08891 22.9929L1.93148 22.9918C3.20345 22.9901 4.27332 22.6383 5.11836 21.9501C5.94341 21.2784 6.35822 20.1148 6.3561 18.4893L6.34804 12.3244C6.34306 8.51816 7.39954 5.4971 9.48493 3.34022C11.5735 1.17997 14.628 0.0824907 18.5629 0.077347L18.5663 0.0773425Z" fill="black"/></svg>