<svg width="677" height="526" viewBox="0 0 677 526" fill="none" xmlns="http://www.w3.org/2000/svg" class="w-full h-full pointer-events-none scale-105"><defs><linearGradient id="light-gradient" x1="-100%" y1="0%" x2="100%" y2="0%"><stop offset="0%" style="stop-color: #FF9100; stop-opacity: 0;"/><stop offset="25%" style="stop-color: #FF9100; stop-opacity: 1;"/><stop offset="50%" style="stop-color: white;   stop-opacity: 1;"/><stop offset="75%" style="stop-color: #FF9100; stop-opacity: 1;"/><stop offset="100%" style="stop-color: #FF9100; stop-opacity: 0;"/><animate attributeName="x1" values="-100%; 100%; 100%" keyTimes="0; 0.66; 1" dur="3s" repeatCount="indefinite"/><animate attributeName="x2" values="0%; 200%; 200%" keyTimes="0; 0.66; 1" dur="3s" repeatCount="indefinite"/></linearGradient><mask id="stroke-mask-for-light" mask-type="alpha"><path d="M129 32V525L677.5 526.5L678 102H351.5V32H129Z" stroke="white" stroke-width="1" fill="none"/></mask><clipPath id="clip0_4864_10612"><rect width="677" height="525" fill="white" transform="translate(0 0.617188)"/></clipPath><clipPath id="clip1_4864_10612"><rect width="363.121" height="70.091" fill="white" transform="translate(130 32.9531)"/></clipPath><mask id="path-2-inside-1_4864_10612" fill="white"><path d="M130 32.9531H854V103.044H130V32.9531Z"/></mask><mask id="path-4-inside-2_4864_10612" fill="white"><path d="M130 32.9531H352.455V103.044H130V32.9531Z"/></mask><mask id="path-10-inside-3_4864_10612" fill="white"><path d="M352.455 32.9531H493.122V103.044H352.455V32.9531Z"/></mask></defs><g clip-path="url(#clip0_4864_10612)"><rect x="129.027" y="31.9796" width="725.947" height="1317.02" fill="#1F1F1F"/><rect x="129.027" y="31.9796" width="725.947" height="1317.02" stroke="#3E3E3E" stroke-width="1"/><path d="M130 32.9531H854V103.044H130V32.9531Z" fill="#151515"/><path d="M854 101.097H130V104.991H854V101.097Z" fill="#3E3E3E" mask="url(#path-2-inside-1_4864_10612)"/><g clip-path="url(#clip1_4864_10612)"><path d="M130 32.9531H352.455V103.044H130V32.9531Z" fill="#1F1F1F"/><path d="M350.508 32.9531V103.044H354.402V32.9531H350.508Z" fill="#3E3E3E" mask="url(#path-4-inside-2_4864_10612)"/><path d="M166.019 69.4579C166.019 70.2643 165.365 70.9181 164.559 70.9181C163.752 70.9181 163.098 70.2643 163.098 69.4579C163.098 68.6514 163.752 67.9977 164.559 67.9977C165.365 67.9977 166.019 68.6514 166.019 69.4579Z" fill="#17B877"/><path d="M173.32 70.9181C174.126 70.9181 174.78 70.2643 174.78 69.4579C174.78 68.6514 174.126 67.9977 173.32 67.9977C172.514 67.9977 171.86 68.6514 171.86 69.4579C171.86 70.2643 172.514 70.9181 173.32 70.9181Z" fill="#17B877"/><path fill-rule="evenodd" clip-rule="evenodd" d="M181.413 56.8817L177.099 62.9215C180.419 65.4071 182.568 69.3719 182.568 73.8386V76.1395C182.568 78.0946 180.983 79.6795 179.028 79.6795H158.85C156.895 79.6795 155.311 78.0946 155.311 76.1395V73.8386C155.311 69.3719 157.459 65.4071 160.779 62.9215L156.465 56.8817L158.05 55.75L162.419 61.8676C164.356 60.8105 166.578 60.2098 168.939 60.2098C171.301 60.2098 173.523 60.8105 175.459 61.8676L179.829 55.75L181.413 56.8817ZM180.621 76.1395V73.8386C180.621 67.3869 175.391 62.1567 168.939 62.1567C162.488 62.1567 157.258 67.3869 157.258 73.8386V76.1395C157.258 77.0193 157.971 77.7325 158.85 77.7325H179.028C179.908 77.7325 180.621 77.0193 180.621 76.1395Z" fill="#17B877"/><path d="M193.168 76.4219L199.607 58.5883H202.598L209.036 76.4219H206.12L204.513 71.602H197.691L196.072 76.4219H193.168ZM200.991 61.715L198.433 69.3774H203.772L201.201 61.715H200.991ZM211.829 76.4219V63.0003H214.511V65.0395H214.709C215.364 63.6059 216.649 62.7408 218.602 62.7408C221.605 62.7408 223.261 64.5328 223.261 67.7337V76.4219H220.592V68.364C220.592 66.1394 219.665 65.0395 217.7 65.0395C215.735 65.0395 214.511 66.3866 214.511 68.5494V76.4219H211.829ZM231.9 76.6443C228.526 76.6443 226.339 73.9378 226.339 69.7235V69.6987C226.339 65.4473 228.489 62.7655 231.9 62.7655C233.741 62.7655 235.311 63.68 236.028 65.126H236.238V57.7355H238.907V76.4219H236.238V74.3085H236.028C235.249 75.7792 233.779 76.6443 231.9 76.6443ZM232.666 74.358C234.903 74.358 236.275 72.5907 236.275 69.7235V69.6987C236.275 66.8315 234.891 65.0642 232.666 65.0642C230.417 65.0642 229.07 66.8192 229.07 69.6987V69.7235C229.07 72.603 230.417 74.358 232.666 74.358ZM242.899 76.4219V63.0003H245.581V65.0271H245.779C246.261 63.6059 247.509 62.7655 249.301 62.7655C249.734 62.7655 250.203 62.8273 250.475 62.8891V65.3608C249.993 65.262 249.536 65.2002 249.029 65.2002C246.978 65.2002 245.581 66.4608 245.581 68.4011V76.4219H242.899ZM258.372 76.6814C254.43 76.6814 252.02 74.049 252.02 69.7235V69.6987C252.02 65.3856 254.442 62.7408 258.372 62.7408C262.29 62.7408 264.712 65.3732 264.712 69.6987V69.7235C264.712 74.049 262.302 76.6814 258.372 76.6814ZM258.372 74.4445C260.671 74.4445 261.981 72.6895 261.981 69.7235V69.6987C261.981 66.7203 260.671 64.9777 258.372 64.9777C256.061 64.9777 254.764 66.7203 254.764 69.6987V69.7235C254.764 72.7019 256.061 74.4445 258.372 74.4445ZM269.31 60.6027C268.383 60.6027 267.629 59.8489 267.629 58.9343C267.629 58.0074 268.383 57.2535 269.31 57.2535C270.224 57.2535 270.991 58.0074 270.991 58.9343C270.991 59.8489 270.224 60.6027 269.31 60.6027ZM267.963 76.4219V63.0003H270.632V76.4219H267.963ZM279.432 76.6443C276.058 76.6443 273.87 73.9378 273.87 69.7235V69.6987C273.87 65.4473 276.021 62.7655 279.432 62.7655C281.273 62.7655 282.843 63.68 283.559 65.126H283.77V57.7355H286.439V76.4219H283.77V74.3085H283.559C282.781 75.7792 281.31 76.6443 279.432 76.6443ZM280.198 74.358C282.435 74.358 283.807 72.5907 283.807 69.7235V69.6987C283.807 66.8315 282.422 65.0642 280.198 65.0642C277.949 65.0642 276.601 66.8192 276.601 69.6987V69.7235C276.601 72.603 277.949 74.358 280.198 74.358Z" fill="#E1DFDF"/><path d="M312.668 69.2741L305.607 76.439L304.153 74.9852L311.318 67.9242L304.153 60.8632L305.607 59.4095L312.668 66.5743L319.729 59.4095L321.182 60.8632L314.017 67.9242L321.182 74.9852L319.729 76.439L312.668 69.2741Z" fill="#E1DFDF"/><rect x="130" y="32.9531" width="220.5" height="2" fill="#7895FF"/></g><g><path d="M352.455 32.9531H493.122V103.044H352.455V32.9531Z" fill="#151515"/><path d="M493.122 101.097H352.455V104.991H493.122V101.097Z" fill="#3E3E3E" mask="url(#path-10-inside-3_4864_10612)"/><path d="M387.501 60.2109L379.713 67.9988L387.501 75.7867" stroke="#A87FFB" stroke-width="1" stroke-linecap="round" stroke-linejoin="round"/><path d="M395.288 60.2109L403.076 67.9988L395.288 75.7867" stroke="#A87FFB" stroke-width="1" stroke-linecap="round" stroke-linejoin="round"/><path d="M420.665 76.4219L415.858 58.5883H418.737L422.012 72.4547H422.185L425.905 58.5883H428.476L432.221 72.4547H432.394L435.656 58.5883H438.536L433.716 76.4219H431.108L427.277 63.0868H427.104L423.285 76.4219H420.665ZM445.877 76.6814C441.947 76.6814 439.574 73.9996 439.574 69.7482V69.7358C439.574 65.5462 441.996 62.7408 445.741 62.7408C449.486 62.7408 451.784 65.4473 451.784 69.4763V70.4155H442.268C442.318 72.9862 443.727 74.4816 445.939 74.4816C447.657 74.4816 448.682 73.6288 449.004 72.9367L449.053 72.8379L451.636 72.8255L451.611 72.9367C451.167 74.704 449.313 76.6814 445.877 76.6814ZM445.753 64.9406C443.924 64.9406 442.54 66.1889 442.305 68.4999H449.127C448.917 66.1024 447.57 64.9406 445.753 64.9406ZM462.104 76.6443C460.225 76.6443 458.755 75.7792 457.976 74.3085H457.778V76.4219H455.097V57.7355H457.778V65.126H457.976C458.693 63.68 460.263 62.7655 462.104 62.7655C465.515 62.7655 467.665 65.4473 467.665 69.6987V69.7235C467.665 73.9378 465.49 76.6443 462.104 76.6443ZM461.35 74.358C463.587 74.358 464.934 72.603 464.934 69.7235V69.6987C464.934 66.8192 463.587 65.0642 461.35 65.0642C459.113 65.0642 457.729 66.8315 457.729 69.6987V69.7235C457.729 72.5907 459.113 74.358 461.35 74.358Z" fill="#E1DFDF"/></g><rect x="255.579" y="185.927" width="475.061" height="1011.84" rx="45.7538" fill="#151515"/><rect x="255.579" y="185.927" width="475.061" height="1011.84" rx="45.7538" stroke="#3E3E3E" stroke-width="1"/><rect x="270.182" y="200.531" width="445.856" height="982.636" rx="31.1515" fill="#1F1F1F"/><rect x="289.65" y="210.266" width="31.1515" height="31.1515" rx="15.5758" fill="black"/><rect x="120" y="30" width="560" height="500" fill="url(#light-gradient)" mask="url(#stroke-mask-for-light)"/></g></svg>