<svg xmlns="http://www.w3.org/2000/svg" fill="currentColor" viewBox="0 0 496 16" width="496" height="16" data-astro-cid-zdwhra5n=""><path d="M0 4h16v1H0zm0 4h16v1H0zm0 4h16v1H0zm16-7.957h16v1H16zM16 8h16v1H16zm0 3.957h16v1H16zM32 4.2h16v1H32zM32 8h16v1H32zm0 3.8h16v1H32zm16-7.264h16v1H48zM48 8h16v1H48zm0 3.464h16v1H48zm16-6.352h16v1H64zM64 8h16v1H64zm0 2.888h16v1H64zm16-5.059h16v1H80zM80 8h16v1H80zm0 2.171h16v1H80zm16-3.717h16v1H96zM96 8h16v1H96zm0 1.546h16v1H96zm16-2.626h16v1h-16zM112 8h16v1h-16zm0 1.08h16v1h-16zm16-1.822h16v1h-16z" data-astro-cid-zdwhra5n=""/><path d="M128 8h16v1h-16z" data-astro-cid-zdwhra5n=""/><path d="M128 8.742h16v1h-16zm16-1.238h16v1h-16z" data-astro-cid-zdwhra5n=""/><path d="M144 8h16v1h-16z" data-astro-cid-zdwhra5n=""/><path d="M144 8.496h16v1h-16zm16-.813h16v1h-16z" data-astro-cid-zdwhra5n=""/><path d="M160 8h16v1h-16z" data-astro-cid-zdwhra5n=""/><path d="M160 8.317h16v1h-16z" data-astro-cid-zdwhra5n=""/><g data-astro-cid-zdwhra5n=""><path d="M176 7.812h16v1h-16z" data-astro-cid-zdwhra5n=""/><path d="M176 8h16v1h-16z" data-astro-cid-zdwhra5n=""/><path d="M176 8.188h16v1h-16z" data-astro-cid-zdwhra5n=""/></g><g data-astro-cid-zdwhra5n=""><path d="M192 7.901h16v1h-16z" data-astro-cid-zdwhra5n=""/><path d="M192 8h16v1h-16z" data-astro-cid-zdwhra5n=""/><path d="M192 8.099h16v1h-16z" data-astro-cid-zdwhra5n=""/></g><g data-astro-cid-zdwhra5n=""><path d="M208 7.959h16v1h-16z" data-astro-cid-zdwhra5n=""/><path d="M208 8h16v1h-16z" fill-opacity=".939" data-astro-cid-zdwhra5n=""/><path d="M208 8.041h16v1h-16z" data-astro-cid-zdwhra5n=""/></g><g data-astro-cid-zdwhra5n=""><path d="M224 7.99h16v1h-16z" data-astro-cid-zdwhra5n=""/><path d="M224 8h16v1h-16z" fill-opacity=".147" data-astro-cid-zdwhra5n=""/><path d="M224 8.01h16v1h-16z" data-astro-cid-zdwhra5n=""/></g><g data-astro-cid-zdwhra5n=""><path d="M240 8h16v1h-16z" data-astro-cid-zdwhra5n=""/><path d="M240 8h16v1h-16z" data-astro-cid-zdwhra5n=""/></g><g data-astro-cid-zdwhra5n=""><path d="m256.013 7.933 15.982.134-.008 1-15.982-.134z" data-astro-cid-zdwhra5n=""/><path d="m256.005 8.067 15.982-.134.008 1-15.982.134z" data-astro-cid-zdwhra5n=""/></g><g data-astro-cid-zdwhra5n=""><path d="m272.066 7.688 15.908.624-.04 1-15.908-.624z" data-astro-cid-zdwhra5n=""/><path d="m272.026 8.312 15.908-.624.04 1-15.908.624z" data-astro-cid-zdwhra5n=""/></g><g data-astro-cid-zdwhra5n=""><path d="m288.203 7.174 15.699 1.658-.105.994-15.699-1.658z" data-astro-cid-zdwhra5n=""/><path d="m288.098 8.832 15.699-1.658.105.994-15.699 1.658z" data-astro-cid-zdwhra5n=""/></g><g data-astro-cid-zdwhra5n=""><path d="m304.515 6.327 15.186 3.37-.216.976-15.186-3.37z" data-astro-cid-zdwhra5n=""/><path d="m304.299 9.697 15.186-3.37.216.976-15.186 3.37z" data-astro-cid-zdwhra5n=""/></g><g data-astro-cid-zdwhra5n=""><path d="m321.029 5.349 14.294 5.366-.352.936-14.294-5.366z" data-astro-cid-zdwhra5n=""/><path d="m320.677 10.715 14.294-5.366.352.936-14.294 5.366z" data-astro-cid-zdwhra5n=""/></g><g data-astro-cid-zdwhra5n=""><path d="m337.578 4.577 13.308 6.96-.464.886-13.308-6.96z" data-astro-cid-zdwhra5n=""/><path d="m337.114 11.537 13.308-6.96.464.886-13.308 6.96z" data-astro-cid-zdwhra5n=""/></g><g data-astro-cid-zdwhra5n=""><path d="m354.041 4.057 12.46 8.046-.542.84-12.46-8.046z" data-astro-cid-zdwhra5n=""/><path d="m353.499 12.103 12.46-8.046.542.84-12.46 8.046z" data-astro-cid-zdwhra5n=""/></g><g data-astro-cid-zdwhra5n=""><path d="m370.403 3.712 11.791 8.773-.597.803-11.791-8.773z" data-astro-cid-zdwhra5n=""/><path d="m369.806 12.485 11.791-8.773.597.803-11.791 8.773z" data-astro-cid-zdwhra5n=""/></g><g data-astro-cid-zdwhra5n=""><path d="m386.679 3.479 11.277 9.27-.635.772-11.277-9.27z" data-astro-cid-zdwhra5n=""/><path d="m386.044 12.749 11.277-9.27.635.772-11.277 9.27z" data-astro-cid-zdwhra5n=""/></g><g data-astro-cid-zdwhra5n=""><path d="m402.885 3.318 10.891 9.614-.661.75-10.891-9.614z" data-astro-cid-zdwhra5n=""/><path d="m402.224 12.932 10.89-9.614.662.75-10.89 9.614z" data-astro-cid-zdwhra5n=""/></g><g data-astro-cid-zdwhra5n=""><path d="m419.037 3.208 10.607 9.85-.68.734-10.608-9.85z" data-astro-cid-zdwhra5n=""/><path d="m418.356 13.059 10.607-9.85.68.732-10.606 9.85z" data-astro-cid-zdwhra5n=""/></g><g data-astro-cid-zdwhra5n=""><path d="m435.143 3.135 10.407 10.01-.693.72-10.407-10.01z" data-astro-cid-zdwhra5n=""/><path d="m434.45 13.145 10.407-10.01.693.72-10.407 10.01z" data-astro-cid-zdwhra5n=""/></g><g data-astro-cid-zdwhra5n=""><path d="M451.212 3.088 461.49 13.2l-.701.713L450.51 3.8z" data-astro-cid-zdwhra5n=""/><path d="m450.511 13.2 10.277-10.112.7.713-10.276 10.11z" data-astro-cid-zdwhra5n=""/></g><g data-astro-cid-zdwhra5n=""><path d="m467.25 3.063 10.205 10.166-.706.708-10.204-10.166z" data-astro-cid-zdwhra5n=""/><path d="m466.545 13.229 10.204-10.166.706.708-10.204 10.166z" data-astro-cid-zdwhra5n=""/></g><g data-astro-cid-zdwhra5n=""><path d="m483.262 3.055 10.183 10.183-.707.707-10.183-10.183z" data-astro-cid-zdwhra5n=""/><path d="m482.555 13.238 10.183-10.183.707.707-10.183 10.183z" data-astro-cid-zdwhra5n=""/></g></svg>