<svg width="57" height="58" viewBox="0 0 57 58" fill="none" xmlns="http://www.w3.org/2000/svg" class="w-6 sm:w-9 lg:w-full"><path d="M21.8888 57.2302H34.3369V57.2416C35.216 57.2416 35.9373 56.526 35.9373 55.6411V42.1846L47.5907 48.9129C47.9627 49.1213 48.3909 49.1833 48.8078 49.0707C49.2249 48.958 49.5686 48.693 49.7827 48.3211L56.0095 37.5411C56.4546 36.7747 56.1899 35.7943 55.4234 35.3492L43.7701 28.6207L55.4234 21.8924C56.1899 21.4473 56.4492 20.4667 56.0095 19.7004L49.7827 8.92047C49.5686 8.54852 49.2192 8.28354 48.8078 8.17089C48.3909 8.05823 47.9627 8.11456 47.5907 8.32869L35.9373 15.057V1.60042C35.9373 0.721308 35.2217 0 34.3369 0H21.8888C21.0099 0 20.2886 0.715612 20.2886 1.60042V15.057L8.63503 8.32869C7.86878 7.88924 6.88819 8.14831 6.44304 8.91477L0.21625 19.6947C-0.228897 20.4612 0.0358707 21.4416 0.802326 21.8867L12.4557 28.6152L0.802326 35.3435C0.0358707 35.7886 -0.223201 36.7692 0.21625 37.5354L6.44304 48.3156C6.88819 49.0819 7.86878 49.3411 8.63503 48.9015L20.2886 42.1732V55.63C20.2886 56.5091 21.0042 57.2302 21.8888 57.2302Z" fill="black"/></svg>