<svg width="192" height="23" viewBox="0 0 192 23" fill="none" xmlns="http://www.w3.org/2000/svg" class="text-gray-400 hover:text-gray-800 transition-colors duration-300"><g clip-path="url(#clip0_4805_9678)"><path d="M27.3262 11.6918C27.3262 14.6629 24.9677 16.8523 22.0732 16.8523C19.1788 16.8523 16.8203 14.6629 16.8203 11.6918C16.8203 8.69969 19.1788 6.53125 22.0732 6.53125C24.9677 6.53125 27.3262 8.69969 27.3262 11.6918ZM25.0267 11.6918C25.0267 9.8351 23.6598 8.56475 22.0732 8.56475C20.4867 8.56475 19.1198 9.8351 19.1198 11.6918C19.1198 13.5298 20.4867 14.8188 22.0732 14.8188C23.6598 14.8188 25.0267 13.5275 25.0267 11.6918Z" fill="currentColor"/><path d="M38.6621 11.6918C38.6621 14.6629 36.3036 16.8523 33.4092 16.8523C30.5148 16.8523 28.1562 14.6629 28.1562 11.6918C28.1562 8.70202 30.5148 6.53125 33.4092 6.53125C36.3036 6.53125 38.6621 8.69969 38.6621 11.6918ZM36.3626 11.6918C36.3626 9.8351 34.9957 8.56475 33.4092 8.56475C31.8227 8.56475 30.4557 9.8351 30.4557 11.6918C30.4557 13.5298 31.8227 14.8188 33.4092 14.8188C34.9957 14.8188 36.3626 13.5275 36.3626 11.6918Z" fill="currentColor"/><path d="M49.5228 6.84302V16.1078C49.5228 19.9188 47.2422 21.4754 44.5461 21.4754C42.0081 21.4754 40.4807 19.8025 39.9046 18.4344L41.9066 17.6131C42.2631 18.453 43.1366 19.4442 44.5437 19.4442C46.2695 19.4442 47.339 18.3949 47.339 16.4195V15.6773H47.2587C46.7441 16.3032 45.7525 16.85 44.5012 16.85C41.883 16.85 39.4844 14.6024 39.4844 11.7104C39.4844 8.79741 41.883 6.53125 44.5012 6.53125C45.7501 6.53125 46.7417 7.07801 47.2587 7.68527H47.339V6.84535H49.5228V6.84302ZM47.5019 11.7104C47.5019 9.89327 46.2719 8.56475 44.7066 8.56475C43.1201 8.56475 41.7909 9.89327 41.7909 11.7104C41.7909 13.5089 43.1201 14.8188 44.7066 14.8188C46.2719 14.8188 47.5019 13.5089 47.5019 11.7104Z" fill="currentColor"/><path d="M53.1178 1.41406V16.5373H50.875V1.41406H53.1178Z" fill="currentColor"/><path d="M61.8603 13.3926L63.6451 14.5652C63.069 15.4051 61.6809 16.8523 59.2822 16.8523C56.3075 16.8523 54.0859 14.5861 54.0859 11.6918C54.0859 8.62291 56.3264 6.53125 59.0249 6.53125C61.7422 6.53125 63.0714 8.66247 63.5058 9.81416L63.7443 10.4005L56.7443 13.2576C57.2802 14.293 58.1136 14.8211 59.2822 14.8211C60.4532 14.8211 61.2653 14.2534 61.8603 13.3926ZM56.3665 11.5359L61.0458 9.62105C60.7885 8.97656 60.0141 8.52752 59.1028 8.52752C57.9342 8.52752 56.3075 9.54427 56.3665 11.5359Z" fill="currentColor"/><path d="M8.33246 10.3535V8.16407H15.8188C15.892 8.54564 15.9297 8.99701 15.9297 9.48561C15.9297 11.1282 15.4741 13.1594 14.0056 14.6066C12.5773 16.0724 10.7524 16.8541 8.33482 16.8541C3.85389 16.8541 0.0859375 13.2571 0.0859375 8.84112C0.0859375 4.42513 3.85389 0.828125 8.33482 0.828125C10.8137 0.828125 12.5797 1.78671 13.9065 3.03612L12.3389 4.58102C11.3874 3.70154 10.0984 3.01751 8.33246 3.01751C5.06029 3.01751 2.50111 5.61638 2.50111 8.84112C2.50111 12.0659 5.06029 14.6647 8.33246 14.6647C10.4549 14.6647 11.6636 13.8248 12.438 13.0617C13.066 12.4428 13.4792 11.5587 13.6421 10.3511L8.33246 10.3535Z" fill="currentColor"/></g><path d="M188.242 17.0747C187.238 17.0747 186.386 16.8205 185.687 16.3121C184.988 15.8037 184.498 15.1745 184.219 14.4245L185.649 13.7954C185.903 14.3928 186.259 14.8504 186.716 15.1681C187.187 15.4859 187.695 15.6448 188.242 15.6448C188.852 15.6448 189.354 15.5113 189.748 15.2444C190.155 14.9775 190.358 14.6533 190.358 14.272C190.358 13.9034 190.206 13.5983 189.9 13.3568C189.608 13.1153 189.1 12.9056 188.375 12.7277L187.079 12.4035C186.367 12.2383 185.757 11.9396 185.248 11.5074C184.753 11.0753 184.505 10.5033 184.505 9.79147C184.505 9.20678 184.67 8.7047 185 8.28525C185.344 7.86579 185.795 7.54802 186.354 7.33194C186.913 7.11585 187.524 7.00781 188.185 7.00781C188.998 7.00781 189.735 7.19847 190.396 7.5798C191.07 7.94841 191.547 8.47591 191.826 9.16229L190.396 9.77241C190.193 9.31482 189.881 8.97798 189.462 8.7619C189.055 8.54582 188.598 8.43778 188.089 8.43778C187.593 8.43778 187.142 8.55853 186.735 8.80003C186.341 9.04154 186.144 9.35295 186.144 9.73427C186.144 10.0648 186.272 10.3253 186.526 10.516C186.793 10.7066 187.212 10.8782 187.784 11.0308L189.195 11.374C190.136 11.6155 190.835 11.9777 191.292 12.4607C191.763 12.931 191.998 13.4967 191.998 14.1576C191.998 14.7042 191.839 15.1999 191.521 15.6448C191.203 16.0897 190.758 16.4392 190.186 16.6934C189.614 16.9476 188.966 17.0747 188.242 17.0747Z" fill="currentColor"/><path d="M178.297 7.31724H179.841V8.8616H179.917C180.095 8.34046 180.458 7.90829 181.004 7.5651C181.564 7.2092 182.116 7.03125 182.663 7.03125C183.057 7.03125 183.426 7.08845 183.769 7.20285V8.95693C183.426 8.76627 182.981 8.67094 182.434 8.67094C181.989 8.67094 181.57 8.8044 181.176 9.07133C180.795 9.32555 180.489 9.66874 180.261 10.1009C180.032 10.5331 179.917 11.0034 179.917 11.5118V16.7741H178.297V7.31724Z" fill="currentColor"/><path d="M172.029 17.0747C171.114 17.0747 170.294 16.8587 169.569 16.4265C168.857 15.9943 168.298 15.3969 167.891 14.6343C167.485 13.8716 167.281 13.0073 167.281 12.0413C167.281 11.1261 167.472 10.2872 167.853 9.52455C168.235 8.74919 168.775 8.13907 169.474 7.69419C170.186 7.23661 170.999 7.00781 171.914 7.00781C172.829 7.00781 173.63 7.21754 174.317 7.637C175.016 8.04374 175.55 8.62208 175.918 9.37202C176.287 10.122 176.471 10.9863 176.471 11.965C176.471 12.143 176.458 12.2701 176.433 12.3463H168.921C168.946 13.0581 169.118 13.6619 169.436 14.1576C169.753 14.6406 170.148 15.0029 170.618 15.2444C171.101 15.4859 171.597 15.6067 172.105 15.6067C173.3 15.6067 174.221 15.022 174.87 13.8526L176.3 14.5389C175.893 15.3016 175.327 15.9181 174.603 16.3884C173.891 16.846 173.033 17.0747 172.029 17.0747ZM174.755 10.9926C174.73 10.6113 174.622 10.23 174.431 9.84867C174.24 9.46735 173.929 9.14322 173.497 8.8763C173.077 8.60937 172.537 8.47591 171.876 8.47591C171.164 8.47591 170.548 8.7047 170.027 9.16229C169.506 9.61988 169.175 10.23 169.035 10.9926H174.755Z" fill="currentColor"/><path d="M156.566 7.31287H158.111V8.7047H158.187C158.492 8.22169 158.931 7.8213 159.503 7.50353C160.075 7.17305 160.736 7.00781 161.485 7.00781C162.299 7.00781 163.049 7.23025 163.735 7.67513C164.422 8.10729 164.968 8.7047 165.375 9.46735C165.782 10.23 165.985 11.088 165.985 12.0413C165.985 12.9946 165.782 13.8526 165.375 14.6152C164.968 15.3779 164.422 15.9816 163.735 16.4265C163.049 16.8587 162.299 17.0747 161.485 17.0747C160.736 17.0747 160.068 16.9159 159.484 16.5981C158.912 16.2676 158.479 15.8545 158.187 15.3588H158.111L158.187 16.6744V20.888H156.566V7.31287ZM161.238 15.6067C161.797 15.6067 162.312 15.4605 162.782 15.1681C163.265 14.8758 163.646 14.4627 163.926 13.9288C164.218 13.3823 164.364 12.7531 164.364 12.0413C164.364 11.3295 164.218 10.7066 163.926 10.1728C163.646 9.62623 163.265 9.20678 162.782 8.91443C162.312 8.62208 161.797 8.47591 161.238 8.47591C160.678 8.47591 160.157 8.62208 159.674 8.91443C159.204 9.19407 158.823 9.60717 158.53 10.1537C158.251 10.6876 158.111 11.3168 158.111 12.0413C158.111 12.7531 158.251 13.3823 158.53 13.9288C158.823 14.4754 159.204 14.8948 159.674 15.1872C160.157 15.4668 160.678 15.6067 161.238 15.6067Z" fill="currentColor"/><path d="M150.038 17.0747C149.11 17.0747 148.278 16.8587 147.54 16.4265C146.803 15.9816 146.225 15.3779 145.805 14.6152C145.399 13.8399 145.195 12.9819 145.195 12.0413C145.195 11.1007 145.399 10.2491 145.805 9.48641C146.225 8.71106 146.803 8.10729 147.54 7.67513C148.278 7.23025 149.11 7.00781 150.038 7.00781C150.966 7.00781 151.799 7.23025 152.536 7.67513C153.286 8.10729 153.864 8.71106 154.271 9.48641C154.69 10.2491 154.9 11.1007 154.9 12.0413C154.9 12.9819 154.69 13.8399 154.271 14.6152C153.864 15.3779 153.286 15.9816 152.536 16.4265C151.799 16.8587 150.966 17.0747 150.038 17.0747ZM150.038 15.6067C150.61 15.6067 151.144 15.4605 151.64 15.1681C152.135 14.8758 152.529 14.4627 152.822 13.9288C153.127 13.3823 153.279 12.7531 153.279 12.0413C153.279 11.3295 153.127 10.7066 152.822 10.1728C152.529 9.62623 152.135 9.20678 151.64 8.91443C151.144 8.62208 150.61 8.47591 150.038 8.47591C149.479 8.47591 148.951 8.62208 148.456 8.91443C147.96 9.20678 147.56 9.62623 147.254 10.1728C146.962 10.7066 146.816 11.3295 146.816 12.0413C146.816 12.7531 146.962 13.3823 147.254 13.9288C147.56 14.4627 147.96 14.8758 148.456 15.1681C148.951 15.4605 149.479 15.6067 150.038 15.6067Z" fill="currentColor"/><path d="M141.84 3.125H143.46V16.7764H141.84V3.125Z" fill="currentColor"/><path d="M135.572 17.0747C134.657 17.0747 133.837 16.8587 133.112 16.4265C132.4 15.9943 131.841 15.3969 131.434 14.6343C131.028 13.8716 130.824 13.0073 130.824 12.0413C130.824 11.1261 131.015 10.2872 131.396 9.52455C131.778 8.74919 132.318 8.13907 133.017 7.69419C133.729 7.23661 134.542 7.00781 135.457 7.00781C136.372 7.00781 137.173 7.21754 137.86 7.637C138.559 8.04374 139.093 8.62208 139.461 9.37202C139.83 10.122 140.014 10.9863 140.014 11.965C140.014 12.143 140.001 12.2701 139.976 12.3463H132.464C132.489 13.0581 132.661 13.6619 132.979 14.1576C133.296 14.6406 133.69 15.0029 134.161 15.2444C134.644 15.4859 135.14 15.6067 135.648 15.6067C136.843 15.6067 137.764 15.022 138.413 13.8526L139.843 14.5389C139.436 15.3016 138.87 15.9181 138.146 16.3884C137.434 16.846 136.576 17.0747 135.572 17.0747ZM138.298 10.9926C138.273 10.6113 138.165 10.23 137.974 9.84867C137.783 9.46735 137.472 9.14322 137.04 8.8763C136.62 8.60937 136.08 8.47591 135.419 8.47591C134.707 8.47591 134.091 8.7047 133.57 9.16229C133.049 9.61988 132.718 10.23 132.578 10.9926H138.298Z" fill="currentColor"/><path d="M121 7.3125H122.754L125.652 14.8627H125.69L128.626 7.3125H130.342L126.472 16.7693H124.832L121 7.3125Z" fill="currentColor"/><path d="M115.982 17.0747C115.067 17.0747 114.247 16.8587 113.522 16.4265C112.811 15.9943 112.251 15.3969 111.844 14.6343C111.438 13.8716 111.234 13.0073 111.234 12.0413C111.234 11.1261 111.425 10.2872 111.806 9.52455C112.188 8.74919 112.728 8.13907 113.427 7.69419C114.139 7.23661 114.952 7.00781 115.867 7.00781C116.783 7.00781 117.583 7.21754 118.27 7.637C118.969 8.04374 119.503 8.62208 119.871 9.37202C120.24 10.122 120.424 10.9863 120.424 11.965C120.424 12.143 120.412 12.2701 120.386 12.3463H112.874C112.899 13.0581 113.071 13.6619 113.389 14.1576C113.707 14.6406 114.101 15.0029 114.571 15.2444C115.054 15.4859 115.55 15.6067 116.058 15.6067C117.253 15.6067 118.174 15.022 118.823 13.8526L120.253 14.5389C119.846 15.3016 119.28 15.9181 118.556 16.3884C117.844 16.846 116.986 17.0747 115.982 17.0747ZM118.708 10.9926C118.683 10.6113 118.575 10.23 118.384 9.84867C118.194 9.46735 117.882 9.14322 117.45 8.8763C117.03 8.60937 116.49 8.47591 115.829 8.47591C115.118 8.47591 114.501 8.7047 113.98 9.16229C113.459 9.61988 113.128 10.23 112.988 10.9926H118.708Z" fill="currentColor"/><path d="M99.0039 3.125H103.141C104.539 3.125 105.76 3.41735 106.802 4.00204C107.844 4.57403 108.645 5.37481 109.204 6.40438C109.764 7.43395 110.043 8.61605 110.043 9.95068C110.043 11.2853 109.764 12.4674 109.204 13.497C108.645 14.5266 107.844 15.3337 106.802 15.9184C105.76 16.4904 104.539 16.7764 103.141 16.7764H99.0039V3.125ZM103.141 15.232C104.756 15.232 106.033 14.7681 106.974 13.8402C107.914 12.9123 108.384 11.6158 108.384 9.95068C108.384 8.28557 107.914 6.98907 106.974 6.06119C106.033 5.1333 104.756 4.66936 103.141 4.66936H100.625V15.232H103.141Z" fill="currentColor"/><path d="M87.2656 7.31724H88.81V8.8616H88.8862C89.0642 8.34046 89.4265 7.90829 89.973 7.5651C90.5323 7.2092 91.0852 7.03125 91.6318 7.03125C92.0258 7.03125 92.3944 7.08845 92.7376 7.20285V8.95693C92.3944 8.76627 91.9495 8.67094 91.403 8.67094C90.9581 8.67094 90.5386 8.8044 90.1446 9.07133C89.7633 9.32555 89.4582 9.66874 89.2294 10.1009C89.0006 10.5331 88.8862 11.0034 88.8862 11.5118V16.7741H87.2656V7.31724Z" fill="currentColor"/><path d="M80.7569 17.0747C79.829 17.0747 78.9964 16.8587 78.2592 16.4265C77.522 15.9816 76.9436 15.3779 76.5242 14.6152C76.1174 13.8399 75.9141 12.9819 75.9141 12.0413C75.9141 11.1007 76.1174 10.2491 76.5242 9.48641C76.9436 8.71106 77.522 8.10729 78.2592 7.67513C78.9964 7.23025 79.829 7.00781 80.7569 7.00781C81.6848 7.00781 82.5173 7.23025 83.2545 7.67513C84.0045 8.10729 84.5828 8.71106 84.9896 9.48641C85.409 10.2491 85.6187 11.1007 85.6187 12.0413C85.6187 12.9819 85.409 13.8399 84.9896 14.6152C84.5828 15.3779 84.0045 15.9816 83.2545 16.4265C82.5173 16.8587 81.6848 17.0747 80.7569 17.0747ZM80.7569 15.6067C81.3289 15.6067 81.8627 15.4605 82.3584 15.1681C82.8541 14.8758 83.2482 14.4627 83.5405 13.9288C83.8456 13.3823 83.9981 12.7531 83.9981 12.0413C83.9981 11.3295 83.8456 10.7066 83.5405 10.1728C83.2482 9.62623 82.8541 9.20678 82.3584 8.91443C81.8627 8.62208 81.3289 8.47591 80.7569 8.47591C80.1976 8.47591 79.6701 8.62208 79.1744 8.91443C78.6787 9.20678 78.2783 9.62623 77.9732 10.1728C77.6809 10.7066 77.5347 11.3295 77.5347 12.0413C77.5347 12.7531 77.6809 13.3823 77.9732 13.9288C78.2783 14.4627 78.6787 14.8758 79.1744 15.1681C79.6701 15.4605 80.1976 15.6067 80.7569 15.6067Z" fill="currentColor"/><path d="M71.0935 8.78393H69.3203V7.31583H71.0935V6.00027C71.0935 5.39015 71.2269 4.8563 71.4939 4.39871C71.7735 3.94112 72.1421 3.59158 72.5997 3.35007C73.07 3.09586 73.5911 2.96875 74.1631 2.96875C74.4809 2.96875 74.7351 2.98782 74.9258 3.02595C75.1291 3.06408 75.3389 3.12128 75.5549 3.19754V4.78004C75.1482 4.57666 74.7033 4.47498 74.2203 4.47498C73.8009 4.47498 73.445 4.62751 73.1526 4.93256C72.8603 5.22491 72.7141 5.63801 72.7141 6.17186V7.31583H75.1546V8.78393H72.7141V16.7726H71.0935V8.78393Z" fill="currentColor"/><defs><clipPath id="clip0_4805_9678"><rect width="64.2157" height="21.4052" fill="currentColor" transform="translate(0 0.71875)"/></clipPath></defs></svg>