<svg class="size-12 sm:size-full" width="100" height="100" viewBox="0 0 100 100" fill="none" xmlns="http://www.w3.org/2000/svg"><g clip-path="url(#clip0_4828_10702)"><path d="M84.1772 0H15.8228C7.0841 0 0 7.0841 0 15.8228V84.1772C0 92.9159 7.0841 100 15.8228 100H84.1772C92.9159 100 100 92.9159 100 84.1772V15.8228C100 7.0841 92.9159 0 84.1772 0Z" fill="#FDADEE"/><path d="M43.4386 77.7849H55.8867V77.7962C56.7658 77.7962 57.4871 77.0806 57.4871 76.1958V62.7393L69.1405 69.4676C69.5125 69.676 69.9407 69.738 70.3576 69.6254C70.7747 69.5127 71.1184 69.2477 71.3325 68.8758L77.5593 58.0958C78.0044 57.3294 77.7397 56.349 76.9732 55.9038L65.3199 49.1754L76.9732 42.4471C77.7397 42.0019 77.999 41.0214 77.5593 40.2551L71.3325 29.4752C71.1184 29.1032 70.769 28.8382 70.3576 28.7256C69.9407 28.6129 69.5125 28.6692 69.1405 28.8834L57.4871 35.6116V22.1551C57.4871 21.276 56.7715 20.5547 55.8867 20.5547H43.4386C42.5597 20.5547 41.8384 21.2703 41.8384 22.1551V35.6116L30.1848 28.8834C29.4186 28.4439 28.438 28.703 27.9928 29.4695L21.7661 40.2494C21.3209 41.0159 21.5857 41.9962 22.3521 42.4414L34.0055 49.1699L22.3521 55.8982C21.5857 56.3433 21.3266 57.3239 21.7661 58.0901L27.9928 68.8703C28.438 69.6365 29.4186 69.8958 30.1848 69.4562L41.8384 62.7279V76.1846C41.8384 77.0638 42.554 77.7849 43.4386 77.7849Z" fill="black"/></g><defs><clipPath id="clip0_4828_10702"><rect width="100" height="100" fill="white"/></clipPath></defs></svg>