<svg width="16" height="16" viewBox="0 0 16 16" fill="none" xmlns="http://www.w3.org/2000/svg"><path d="M9.01333 6.98667L4.96 4.96L6.98667 9.01333L11.04 11.04L9.01333 6.98667ZM9.44 9.44L7.52 8.48L6.56 6.56L8.48 7.52L9.44 9.44ZM13.9733 8.48H13.0133V7.52H13.9733C13.9022 6.56 13.6178 5.67111 13.12 4.85333C12.6222 4.03556 11.9644 3.37778 11.1467 2.88C10.3289 2.38222 9.44 2.09778 8.48 2.02667V2.98667H7.52V2.02667C6.56 2.09778 5.67111 2.38222 4.85333 2.88C4.07111 3.37778 3.41333 4.03556 2.88 4.85333C2.38222 5.63556 2.09778 6.50667 2.02667 7.46667H2.98667V8.48H2.02667C2.09778 9.44 2.38222 10.3289 2.88 11.1467C3.37778 11.9289 4.03556 12.5867 4.85333 13.12C5.67111 13.6178 6.56 13.9022 7.52 13.9733V13.0133H8.48V13.9733C9.44 13.9022 10.3289 13.6178 11.1467 13.12C11.9644 12.6222 12.6222 11.9644 13.12 11.1467C13.6178 10.3289 13.9022 9.44 13.9733 8.48ZM8 14.9867C6.72 14.9867 5.54667 14.6844 4.48 14.08C3.41333 13.44 2.56 12.5867 1.92 11.52C1.31556 10.4533 1.01333 9.28 1.01333 8C1.01333 6.72 1.31556 5.54667 1.92 4.48C2.56 3.41333 3.41333 2.57778 4.48 1.97333C5.54667 1.33333 6.72 1.01333 8 1.01333C9.28 1.01333 10.4533 1.33333 11.52 1.97333C12.5867 2.57778 13.4222 3.41333 14.0267 4.48C14.6667 5.54667 14.9867 6.72 14.9867 8C14.9867 9.28 14.6667 10.4533 14.0267 11.52C13.4222 12.5867 12.5867 13.44 11.52 14.08C10.4533 14.6844 9.28 14.9867 8 14.9867Z" fill="currentColor"/></svg>